<svg viewBox="0 0 612 612" xmlns="http://www.w3.org/2000/svg">
 <!-- Created with Method Draw - http://github.com/duopixel/Method-Draw/ -->

 <g>
  <title>background</title>
  <rect x="-1" y="-1" width="614" height="614" id="canvas_background" fill="none"/>
  <g id="canvasGrid" display="none">
   <rect id="svg_3" width="100%" height="100%" x="0" y="0" stroke-width="0" fill="url(#gridpattern)"/>
  </g>
 </g>
 <g>
  <title>Layer 1</title>
  <rect stroke="#ffffff" fill="#6D97AB" stroke-width="0" x="0" y="0" width="612" height="612" id="svg_1" rx="100"/>
  <path stroke="#000" fill="#fff" stroke-width="0" d="m202.22818,280.99972l207.54364,0l0,0c27.1888,0 49.22964,11.19301 49.22964,25.00027c0,13.80726 -22.04084,25.00027 -49.22964,25.00027l-207.54364,0l0,0c-27.18878,0 -49.22964,-11.19301 -49.22964,-25.00027c0,-13.80726 22.04086,-25.00027 49.22964,-25.00027z" id="svg_4"/>
  <path stroke="#000" fill="#fff" stroke-width="0" d="m202.22818,165.9985l207.54364,0l0,0c27.1888,0 49.22964,11.19301 49.22964,25.00027c0,13.80726 -22.04084,25.00027 -49.22964,25.00027l-207.54364,0l0,0c-27.18878,0 -49.22964,-11.19301 -49.22964,-25.00027c0,-13.80726 22.04086,-25.00027 49.22964,-25.00027z" id="svg_2"/>
  <path stroke="#000" fill="#fff" stroke-width="0" d="m202.22818,395.9985l207.54364,0l0,0c27.1888,0 49.22964,11.19301 49.22964,25.00027c0,13.80726 -22.04084,25.00027 -49.22964,25.00027l-207.54364,0l0,0c-27.18878,0 -49.22964,-11.19301 -49.22964,-25.00027c0,-13.80726 22.04086,-25.00027 49.22964,-25.00027z" id="svg_5"/>
 </g>
</svg>