<svg viewBox="0 0 612 612" xmlns="http://www.w3.org/2000/svg">
 <!-- Created with Method Draw - http://github.com/duopixel/Method-Draw/ -->

 <g>
  <title>background</title>
  <rect fill="none" id="canvas_background" height="614" width="614" y="-1" x="-1"/>
  <g display="none" id="canvasGrid">
   <rect fill="url(#gridpattern)" stroke-width="0" y="0" x="0" height="100%" width="100%" id="svg_3"/>
  </g>
 </g>
 <g>
  <title>Layer 1</title>
  <rect rx="100" id="svg_1" height="612" width="612" y="0" x="0" stroke-width="0" fill="#6D97AB" stroke="#ffffff"/>
  <path fill="#ffffff" stroke-width="0" stroke-opacity="null" d="m379.1965,251.75719c0,0 12.915812,-54.186866 0,-72.542474c-12.931025,-18.355608 -18.088222,-30.582388 -46.521264,-39.335651s-18.073009,-7.008786 -38.747436,-6.11339c-20.674427,0.879958 -37.910723,12.22678 -37.910723,18.34017c0,0 -12.915812,0.879958 -18.073009,6.128828c-5.17241,5.24887 -13.782951,29.70243 -13.782951,35.831258s4.305271,47.208956 8.610541,55.946781l-5.126771,1.744477c-4.305271,50.682473 17.221083,56.811301 17.221083,56.811301c7.743402,47.208956 15.502017,27.108871 15.502017,39.335651s-7.758615,7.873305 -7.758615,7.873305s-6.876263,19.220128 -24.097345,26.213475c-17.221083,6.97791 -112.81939,44.553645 -120.593218,52.426951c-7.773828,7.888743 -6.891476,44.584521 -6.891476,44.584521l409.94392,0c0,0 0.897565,-36.695778 -6.876263,-44.584521c-7.789041,-7.888743 -103.387348,-45.449041 -120.608431,-52.426951c-17.221083,-6.993348 -24.097345,-26.213475 -24.097345,-26.213475s-7.758615,4.353475 -7.758615,-7.873305s7.758615,7.873305 15.51723,-39.335651c0,0 21.51114,-6.128828 17.221083,-56.811301l-5.17241,0l-0.000002,0.000001z" id="svg_2" stroke="#ffffff"/>
 </g>
</svg>