<svg viewBox="0 0 580 400" xmlns="http://www.w3.org/2000/svg">
 <!-- Created with Method Draw - http://github.com/duopixel/Method-Draw/ -->

 <g>
  <title>background</title>
  <rect fill="#d5e2ef" id="canvas_background" height="402" width="582" y="-1" x="-1"/>
  <g display="none" id="canvasGrid">
   <rect fill="url(#gridpattern)" stroke-width="0" y="0" x="0" height="100%" width="100%" id="svg_2"/>
  </g>
 </g>
 <g>
  <title>Layer 1</title>
  <path stroke="#000" id="svg_1" d="m327.52986,218.04693c1.45441,-2.8176 2.58393,-5.81933 3.32479,-8.96135c2.89364,-10.70043 2.02221,-20.03299 2.02221,-20.03299l-0.99289,6.14961c0,0 -1.42404,-11.38729 -3.16994,-15.64583c-2.67502,-6.52081 -3.86526,-6.47112 -3.8683,-6.45943c1.6457,4.03057 1.49996,6.33959 1.46655,6.68741c-0.03036,-0.04677 -0.05769,-0.09353 -0.08198,-0.13738c-0.39776,-0.94699 -2.41996,-5.3166 -6.75586,-8.41186c-7.59692,-7.25151 -18.04498,-11.73218 -29.58915,-11.73511c-12.31541,0 -23.39502,5.10032 -31.08607,13.22575c-0.97163,-1.35327 -1.76412,-2.99589 -1.83699,-4.81096c0,0 -0.00607,0.00585 -0.01822,0.01462c0,-0.03216 -0.00911,-0.06138 -0.00911,-0.09061c0,0 -4.88851,3.64475 -4.36018,13.48003c-0.90787,1.67769 -1.70035,3.42554 -2.35924,5.23476c-1.13863,2.38794 -2.27726,5.85732 -3.21549,10.94887c0,0 0.40384,-1.23343 1.2115,-2.88775c-0.19432,1.4088 -0.31274,2.83806 -0.35221,4.28778c-0.27327,2.46977 -0.35829,5.45105 -0.11842,9.02565c0,0 0.09716,-1.18666 0.41294,-2.98419c2.53231,20.03298 20.2433,35.55605 41.72845,35.55605l0,0c5.6476,0 11.04014,-1.08144 15.95902,-3.02804c11.17677,-3.92826 17.78993,-11.45451 21.68859,-19.42503zm-37.64457,-55.86378c7.42689,0 14.3619,1.98751 20.28276,5.43644c-6.90464,-1.54325 -10.42376,-0.76286 -10.3934,-0.72486c0.03948,0.04384 10.27499,1.72154 12.08768,4.12409c0,0 -4.345,0 -8.67179,1.19836c-0.19736,0.05553 15.9165,1.93782 19.21094,17.43752c0,0 -1.76715,-3.54538 -3.95028,-4.1504c1.43619,4.20593 1.06575,12.18814 -0.30364,16.15732c-0.17611,0.50857 -0.35829,-2.20672 -3.04849,-3.37585c0.86233,5.95378 -0.05465,15.39739 -4.34804,17.9987c-0.33096,0.2046 2.69324,-9.32086 0.61031,-5.64103c-12.42775,18.34359 -27.20259,7.42102 -33.19937,3.53076c4.8126,1.13405 9.91973,0.31566 12.88017,-1.63386c2.98168,-1.96413 4.74883,-3.39631 6.33684,-3.06019c1.58497,0.34197 2.64162,-1.18958 1.40886,-2.54869c-1.22971,-1.36203 -4.22658,-3.22971 -8.27403,-2.21257c-2.85416,0.72193 -6.39757,3.76166 -11.79922,0.68101c-4.60917,-2.62761 -4.57577,-4.76419 -4.57577,-6.1233c0,-1.06975 0.78034,-2.57207 2.22867,-3.00465c1.76108,0.18121 3.16995,0.62548 4.66686,1.36203c0.01518,-0.39458 0.01822,-0.92069 -0.00303,-1.51694c0.11841,-0.22506 0.04554,-0.909 -0.14271,-1.742c-0.10931,-0.83885 -0.29453,-1.70108 -0.57691,-2.48731c0.03037,-0.00585 0.05162,-0.02046 0.06377,-0.06138c0.23076,-1.00545 6.51902,-4.51283 6.98055,-4.84895c0.46456,-0.33321 1.66999,-1.10483 1.53639,-3.4577c-0.04555,-0.77454 -0.17611,-0.8593 -6.77712,-0.83592c-2.78433,0.00877 -4.32679,-2.613 -4.82475,-3.63891c0.67407,-3.59798 2.62037,-6.16714 5.82674,-7.90329c0.06073,-0.03215 0.04555,-0.06138 -0.02429,-0.07892c0.66496,-0.37119 -7.66372,-0.01753 -11.41664,4.6882c-1.00503,0.13737 -2.38657,-0.14029 -3.93207,-0.14029c-1.93718,0 -3.45839,0.20459 -4.86725,0.54656c-0.15182,0.038 -0.37044,0.03215 -0.63156,-0.00292c-0.39473,-0.28059 -0.98378,-0.74824 -1.62141,-1.35619c0.48885,-0.5261 0.98378,-1.04052 1.50299,-1.5374c7.10808,-6.84523 16.91243,-11.07455 27.75824,-11.07747z" stroke-width="1.5" fill="#e8882e"/>
  <path fill="#f23607" stroke-width="1.5" d="m171.99,177.98908c-8.8916,0 -16.14324,6.89674 -16.14324,15.34927s7.25164,15.34927 16.14324,15.34927c8.89161,0 16.14325,-6.89674 16.14325,-15.34927s-7.25164,-15.34927 -16.14325,-15.34927zm40.94647,15.27654c-1.13963,-5.75202 -3.29845,-9.651 -5.33373,-12.63295c0.15443,0.40792 0.27796,0.81901 0.42621,1.22693c-7.22694,-20.09571 -36.14704,-30.98945 -58.48569,-17.17069c-0.17295,0.85379 -0.22546,1.70126 -0.22546,2.5424c0,-0.16127 -0.01853,-0.30989 -0.01235,-0.47433c-5.38314,-0.42373 -11.90283,6.51728 -17.69982,19.2356c-2.94328,7.20031 -4.00879,15.08365 -1.27861,24.32673c1.59363,5.39469 4.10144,10.92852 7.718,15.22278c10.71995,12.73413 27.14116,17.92961 36.70296,15.28918c0.01235,0.00316 0.02779,0.00949 0.04323,0.01265c18.43487,-0.39527 32.41004,-13.36974 37.44727,-30.25899c1.81291,-6.0967 1.93028,-11.08664 0.69799,-17.31931zm-72.55351,30.21156c-2.96489,-3.51636 -5.4202,-8.38297 -7.10031,-14.07807c-2.26382,-7.6525 -1.89012,-14.70418 1.17052,-22.18276c3.10696,-6.80819 6.13981,-11.28269 8.74953,-13.97371c0.46327,2.34634 1.60908,5.14804 3.43743,8.37664c0.67328,1.19847 1.4176,2.21669 2.1372,3.20013c0.55283,0.74944 1.09948,1.49888 1.58437,2.30524c0.38296,0.63876 0.73813,1.40717 1.0933,2.33053c-0.73813,8.70867 2.75489,16.24733 9.72239,21.12026l-7.86315,7.11493l-0.62386,0.54073c-0.6424,0.54074 -1.38053,1.1795 -2.01058,1.86253c-4.20027,4.56621 -0.7721,8.95216 0.8833,11.06134l0.21001,0.27511c0.73196,0.93917 1.58437,1.96056 2.51708,2.96614c-4.889,-2.42856 -9.79343,-6.03346 -13.90723,-10.91904zm68.90607,-13.81877c-4.9415,16.54457 -18.33604,27.51105 -34.18897,28.01383c-7.67476,-1.84355 -13.47175,-5.62869 -17.252,-11.2479c0.01236,-0.01265 0.03089,-0.0253 0.04633,-0.04111l15.26922,-12.13016c6.87486,-0.39211 11.90283,-2.80802 14.96964,-7.20347c3.77407,-4.46501 5.53448,-9.56562 5.22872,-15.3714c5.61169,1.19215 10.46671,2.85546 14.99435,5.9544l0.35826,0.24665l0.41385,0.13598c0.4818,0.15495 0.9605,0.24032 1.41759,0.25614c0.33664,3.92111 -0.06485,7.37738 -1.25699,11.38704zm0.78755,-14.65043c-6.02554,-4.12981 -12.54522,-5.9038 -20.36514,-7.2256c1.63996,7.45644 -0.25943,12.87644 -4.09526,17.42999c-2.724,3.9053 -7.35665,5.76151 -13.57058,5.9291l-16.12163,12.8132c-1.53495,1.29333 -1.82527,2.58983 -0.87094,3.88633c2.62208,4.03811 5.95759,6.96314 9.64209,9.10078c-0.04015,0 -0.0803,0.00632 -0.12045,0.00949c-0.00309,-0.00317 -0.01235,-0.00633 -0.01853,-0.01265c-0.06177,0.00948 -0.12662,0.01265 -0.19148,0.01581c-0.24708,0.00316 -0.49415,-0.00316 -0.73814,-0.03162c-0.48179,-0.06641 -0.96976,-0.20238 -1.41759,-0.37314c-2.77341,-1.05301 -5.83714,-4.27528 -8.02066,-7.08014c-1.79439,-2.3084 -3.72466,-4.53142 -1.26935,-7.19399c0.79681,-0.86327 1.79747,-1.62536 2.43677,-2.2072l7.78595,-7.04852c0.53121,-0.43322 1.08095,-0.87593 1.65231,-1.33761c0.16369,-0.13281 0.33046,-0.26562 0.50033,-0.4016c1.74187,-1.39769 1.49171,-1.0119 -0.33355,-2.03012c-7.47093,-4.17409 -11.35618,-11.42816 -10.35861,-20.20323c-0.46018,-1.2965 -0.97904,-2.50446 -1.59981,-3.5543c-1.12111,-1.89732 -2.57576,-3.48474 -3.68759,-5.44846c-2.7796,-4.92036 -5.70434,-12.33886 0.04015,-11.64318c-0.01545,-0.16759 -0.00618,-0.34784 -0.01545,-0.5186c0.29032,6.32755 4.71295,12.08905 5.38006,15.45679c0.24089,1.20795 0.908,2.22934 1.89012,0.88541c7.83845,-10.73563 18.74371,-9.65416 25.72048,-4.14879c1.36818,1.07514 2.11249,2.38745 3.34787,3.51003c0.47561,0.43638 1.013,0.819 1.65231,1.10993c2.29471,1.04984 5.5808,0.9866 8.05155,1.37239c4.23424,0.65773 8.36039,1.46725 12.26417,2.56769c0.77211,0.09487 1.3095,-0.01265 1.60908,-0.31938c0.65166,-0.65773 -0.00618,-2.80486 -0.37371,-3.99384c0.8555,2.54556 1.65541,5.08796 2.38736,7.63668c0.55901,1.98586 0.42621,3.58909 -1.19213,3.04836l0,-0.00001z" id="svg_3" stroke="#000"/>
  <path stroke="#000" id="svg_4" d="m458.189713,159.77632c-7.107141,-5.993023 -23.215544,1.198605 -32.099471,6.055777c-2.547843,-0.376525 -5.219726,-0.580476 -8.005591,-0.580476c-11.227272,0 -20.288877,3.090643 -27.174758,8.920505c-7.831265,6.711558 -12.172656,15.500279 -12.172656,25.657041c0,0.087856 0.003352,0.175712 0.003352,0.263568c11.019422,-16.159198 27.965931,-24.442748 32.45818,-26.629731c0.710714,-0.310633 1.13312,0.486345 0.472692,0.79384c-0.050286,0.131784 -0.050286,0 0,0c-7.556366,4.235906 -21.569504,16.501208 -30.661281,34.157093l-0.010057,-0.021964c-5.756114,11.129451 -10.61713,26.761514 -0.895098,32.500383c7.365278,4.336313 20.550366,-0.778152 31.160792,-7.273208c2.561253,0.338873 5.25325,0.517722 8.096107,0.517722c19.578163,0 33.313049,-10.112834 38.214294,-24.863201l-26.893155,-0.043928c-1.129767,5.211734 -4.90795,7.994881 -10.804866,7.994881c-7.40886,0 -12.501193,-3.799765 -12.833084,-12.588486l51.05073,-0.043928c0.093868,-1.813595 -0.140802,-3.090643 -0.140802,-4.505749c0,-16.476106 -10.536672,-29.353261 -27.67427,-33.457384c6.976397,-4.060195 20.027388,-10.068906 26.309833,-5.274488c4.716862,3.576988 2.122085,11.085524 0.988965,14.176166c-0.187736,0.796978 0.804582,0.928762 0.992318,0.178849c2.353402,-5.556881 3.064117,-13.02149 -0.382176,-15.933283zm-49.367813,73.453752c-8.277138,4.62812 -19.688793,7.966641 -25.273933,4.044506c-4.167064,-2.933757 -2.333288,-10.881573 1.334265,-18.631712c2.22601,3.112607 5.011876,5.917718 8.290547,8.252173c4.431906,3.118882 9.638222,5.23056 15.649121,6.335033zm-1.870653,-39.629256c0.140802,-7.64032 5.990784,-10.950602 12.125722,-10.950602c6.463476,0 11.699964,3.489132 11.699964,10.950602l-23.825686,0z" stroke-width="1.5" fill="#5B9BA2"/>
 </g>
</svg>