<svg viewBox="0 0 580 400" xmlns="http://www.w3.org/2000/svg">
 <!-- Created with Method Draw - http://github.com/duopixel/Method-Draw/ -->
 <g>
  <title>background</title>
  <rect fill="#e8e3de" id="canvas_background" height="402" width="582" y="-1" x="-1"/>
  <g display="none" overflow="visible" y="0" x="0" height="100%" width="100%" id="canvasGrid">
   <rect fill="url(#gridpattern)" stroke-width="0" y="0" x="0" height="100%" width="100%"/>
  </g>
 </g>
 <g>
  <title>Layer 1</title>
  <path id="svg_2" d="m286.399243,291.91425c-14.549107,-2.928263 -22.977817,-14.966986 -21.983601,-25.888118c-0.372459,-14.265043 1.362262,-29.275505 -7.628655,-42.392048c-5.124707,-9.793336 -13.854702,-18.439988 -17.497856,-28.645706c-4.533532,-15.833483 1.066345,-33.779134 17.939069,-44.408763c19.028456,-12.370586 49.415454,-13.982952 70.362007,-3.468705c14.77376,7.720828 25.43336,20.45513 25.03735,34.351249c1.733527,10.383481 -3.667875,20.150042 -10.022029,29.076338c-4.55249,7.187193 -9.869136,14.220212 -14.001224,21.487543c-1.089321,14.90072 -0.464575,29.938113 -3.419243,44.710666c-4.921928,11.447035 -23.470793,19.229882 -38.785817,15.17754l0,0.000006zm38.426357,-26.642737c-8.634486,-3.531181 -21.042193,-1.235378 -31.078522,-1.995586c-8.198353,1.244116 -22.765949,-2.551781 -27.124361,3.14222c9.96741,2.958242 21.681205,0.740697 32.292459,1.230125c8.490599,-0.618695 18.259221,0.586711 25.910423,-2.376765l0,0.000006zm-0.64666,-6.644658c1.270706,-8.971283 -17.427966,-4.393399 -25.024063,-5.728901c-10.053937,1.543957 -26.053867,-3.304888 -32.376994,3.588047c3.746895,6.926874 20.457044,2.055282 29.231845,3.592176c9.35744,-0.251575 19.065327,0.254454 28.169204,-1.451321l0.000008,0zm0.116417,-15.718469c2.468459,-17.47629 16.552366,-32.027515 24.707574,-48.01388c6.705135,-19.14027 -6.574188,-41.007142 -30.61626,-49.041415c-23.93019,-8.998233 -55.812949,-2.200613 -69.33669,15.431232c-13.030222,14.56436 -10.543496,34.35326 2.191912,48.51698c9.087034,12.37835 16.33709,26.289014 15.15608,40.694579c18.862555,0 37.725119,0 56.587691,0c0.436586,-2.529128 0.873024,-5.058424 1.309693,-7.587496zm-41.758555,-24.759166c-7.473423,-9.858921 -15.145444,-19.793815 -20.349566,-30.478468c4.678835,-4.595103 6.039937,-9.71356 7.493402,-15.112578c13.132102,-1.957045 -1.671565,11.354062 10.727005,11.654029c11.005618,3.633003 6.177618,-17.628484 15.321297,-9.964723c-6.563651,8.410923 12.892755,16.778201 13.606819,4.745985c-0.943211,-9.084891 11.759969,-7.382757 6.807262,0.859108c0.408778,4.239762 9.507124,5.455248 9.662898,8.865238c-6.549904,10.779087 -12.243173,21.907657 -19.999005,32.226795c-1.745752,-3.995289 6.866187,-14.008809 9.618042,-19.888293c5.310068,-5.082314 9.873071,-18.778728 -3.96995,-16.911764c-8.030172,9.502732 -18.832467,-5.99002 -26.695126,3.116925c-6.674578,1.510549 -17.17223,-8.770123 -19.108455,1.114937c5.02701,11.740918 15.487099,21.747162 20.959997,33.366883c-1.857098,-0.830722 -2.914578,-2.288152 -4.07462,-3.594081l0,0.000006zm-10.489766,-43.029029c-3.634132,-1.34567 1.531752,7.153847 -0.000074,0l0.000074,0zm21.721147,1.003914c-4.717485,-6.057323 -2.187417,7.34943 0,0zm21.053965,0c-4.717485,-6.057323 -2.18745,7.34943 0,0zm-98.016026,-44.758401c-8.338059,-6.420389 -17.554756,-12.444866 -24.806128,-19.521898c18.115506,11.377171 34.696338,24.1903 51.021895,37.035518c4.335156,4.519668 -7.562963,-4.220632 -9.77739,-5.6857c-5.540738,-3.893222 -11.008903,-7.845622 -16.438385,-11.82792l0.000008,0zm128.756384,18.356559c14.093357,-13.323005 27.242779,-27.290293 42.437492,-39.903604c-2.544326,5.430659 -10.73471,11.928837 -15.884517,17.521921c-8.600142,8.11772 -16.639016,16.700717 -26.473495,23.979047c-1.227446,0.984346 -3.060326,-1.34715 -0.079349,-1.597364l-0.000123,0l-0.000008,0zm-30.526539,-12.639349c4.869374,-10.567047 11.932488,-20.62563 19.812385,-30.0829c-0.183138,5.246418 -8.540353,15.190131 -12.557349,21.695486c-2.272388,2.617816 -4.189087,6.792686 -7.255035,8.387414zm-62.357033,-13.551846c-3.39197,-3.753794 -13.602703,-12.494388 -11.696204,-13.686371c9.844464,8.281319 19.857052,16.828928 26.928834,26.622301c-6.022337,-3.504337 -10.355657,-8.565759 -15.232638,-12.93593l0.000008,0zm38.983773,-2.954276c-0.686486,-3.525322 1.444575,-20.354431 2.628473,-8.92712c0.004207,7.159743 0.989228,15.21986 -1.637476,21.73657c-1.124818,-4.189729 -0.851917,-8.551494 -0.990997,-12.80945z" stroke-opacity="null" stroke-width="1.5" stroke="#000" fill="#5B9BA2"/>
 </g>
</svg>